PathFileType	4	(X/Y/Z)	 staticP112.trc
DataRate	CameraRate	NumFrames	NumMarkers	Units	OrigDataRate	OrigDataStartFrame	OrigNumFrames
100	100	4	53	M	100	1	100
Frame#	Time	RM1D			RM5D			RM2B			LM1D			LM5D			LM2B			RCAL			LCAL			RLMAL			LLMAL			RMMAL			LMMAL			RSTL			LSTL			RFLE			RFME			LFME			LFLE			RHFIB			LHFIB			RTTUB			LTTUB			RSSH			LSSH			RTL			LTL			RTAP			RTAD			LTAP			LTAD			RTPP			RTPD			LTPP			LTPD			RPSIS			LPSIS			RASIS			LASIS			T10			T2			IJ			SA			RACR			LACR			RHLE			LHLE			RUSP			LUSP			RCB			LCB			IN			LHME			RHME			
		X1	Y1	Z1	X2	Y2	Z2	X3	Y3	Z3	X4	Y4	Z4	X5	Y5	Z5	X6	Y6	Z6	X7	Y7	Z7	X8	Y8	Z8	X9	Y9	Z9	X10	Y10	Z10	X11	Y11	Z11	X12	Y12	Z12	X13	Y13	Z13	X14	Y14	Z14	X15	Y15	Z15	X16	Y16	Z16	X17	Y17	Z17	X18	Y18	Z18	X19	Y19	Z19	X20	Y20	Z20	X21	Y21	Z21	X22	Y22	Z22	X23	Y23	Z23	X24	Y24	Z24	X25	Y25	Z25	X26	Y26	Z26	X27	Y27	Z27	X28	Y28	Z28	X29	Y29	Z29	X30	Y30	Z30	X31	Y31	Z31	X32	Y32	Z32	X33	Y33	Z33	X34	Y34	Z34	X35	Y35	Z35	X36	Y36	Z36	X37	Y37	Z37	X38	Y38	Z38	X39	Y39	Z39	X40	Y40	Z40	X41	Y41	Z41	X42	Y42	Z42	X43	Y43	Z43	X44	Y44	Z44	X45	Y45	Z45	X46	Y46	Z46	X47	Y47	Z47	X48	Y48	Z48	X49	Y49	Z49	X50	Y50	Z50	X51	Y51	Z51	X52	Y52	Z52	X53	Y53	Z53	
1	0.0100	-0.238457	0.044755	-0.189111	-0.274567	0.028276	-0.107974	-0.286287	0.060669	-0.152016	-0.233335	0.042943	-0.321674	-0.269205	0.024553	-0.408838	-0.281835	0.060897	-0.354332	-0.437224	0.044983	-0.172301	-0.439943	0.044773	-0.349770	-0.387128	0.076058	-0.123482	-0.381316	0.076925	-0.390391	-0.369568	0.096335	-0.211186	-0.370955	0.094863	-0.302703	-0.389786	0.042579	-0.202021	-0.393573	0.042605	-0.314587	-0.320915	0.476362	-0.119064	-0.338262	0.470686	-0.229050	-0.344411	0.455360	-0.290195	-0.321255	0.479871	-0.394137	-0.341744	0.426854	-0.108403	-0.342270	0.416080	-0.409437	-0.297188	0.407091	-0.175405	-0.300511	0.399866	-0.344136	-0.318715	0.326120	-0.183219	-0.325340	0.207147	-0.344022	-0.311550	0.640378	-0.091520	-0.298702	0.632196	-0.421489	-0.216546	0.679420	-0.156785	-0.231961	0.619071	-0.166065	-0.227261	0.687467	-0.338593	-0.240170	0.619160	-0.333036	-0.404894	0.695339	-0.171132	-0.411793	0.619326	-0.168618	-0.407098	0.694848	-0.346981	-0.414854	0.622974	-0.349641	-0.388018	1.001984	-0.206348	-0.386214	1.002033	-0.298149	-0.225046	0.950276	-0.154046	-0.233036	0.956297	-0.362811	-0.385559	1.160802	-0.250845	-0.380139	1.410474	-0.239442	-0.228447	1.381101	-0.241327	-0.210454	1.338662	-0.238681	-0.322345	1.364298	-0.043488	-0.316391	1.384748	-0.432672	-0.349715	1.055843	-0.022699	-0.328059	1.058748	-0.479488	-0.296247	0.812420	0.045607	-0.289072	0.826049	-0.565750	-0.206794	1.553100	-0.163448	-0.203491	1.558161	-0.294421	-0.345334	1.483858	-0.236796	-0.286926	1.046396	-0.415138	-0.306438	1.043473	-0.091790	
2	0.0200	-0.238439	0.044783	-0.189051	-0.274569	0.028283	-0.107974	-0.286293	0.060692	-0.151997	-0.233343	0.042948	-0.321673	-0.269195	0.024556	-0.408844	-0.281838	0.060895	-0.354321	-0.437198	0.044959	-0.172285	-0.439923	0.044775	-0.349752	-0.387121	0.076067	-0.123475	-0.381301	0.076921	-0.390385	-0.369448	0.096466	-0.211138	-0.370961	0.094868	-0.302703	-0.389775	0.042566	-0.202025	-0.393545	0.042581	-0.314577	-0.320921	0.476357	-0.119040	-0.338276	0.470669	-0.229044	-0.344405	0.455362	-0.290159	-0.321294	0.479901	-0.394137	-0.341760	0.426852	-0.108373	-0.342654	0.416151	-0.409781	-0.297202	0.407108	-0.175405	-0.300531	0.399886	-0.344112	-0.318733	0.326112	-0.183200	-0.325252	0.207188	-0.344010	-0.311522	0.640380	-0.091468	-0.298703	0.632185	-0.421450	-0.216547	0.679407	-0.156763	-0.231944	0.619107	-0.166036	-0.227268	0.687486	-0.338559	-0.240177	0.619169	-0.333009	-0.404911	0.695330	-0.171099	-0.411810	0.619316	-0.168587	-0.407112	0.694834	-0.346947	-0.414862	0.622953	-0.349597	-0.388045	1.001978	-0.206311	-0.386245	1.002033	-0.298099	-0.225052	0.950296	-0.154007	-0.233083	0.956290	-0.362798	-0.385568	1.160801	-0.250808	-0.380139	1.410485	-0.239406	-0.228426	1.381106	-0.241290	-0.210481	1.338621	-0.238681	-0.322323	1.364294	-0.043438	-0.316410	1.384753	-0.432642	-0.349714	1.055841	-0.022689	-0.328093	1.058747	-0.479448	-0.296216	0.812392	0.045605	-0.289106	0.826035	-0.565684	-0.206788	1.553086	-0.163440	-0.203495	1.558144	-0.294404	-0.345344	1.483873	-0.236764	-0.286937	1.046426	-0.415079	-0.306479	1.043494	-0.091786	
3	0.0300	-0.238464	0.044753	-0.189088	-0.274590	0.028276	-0.107963	-0.286261	0.060677	-0.151993	-0.233358	0.042954	-0.321670	-0.269204	0.024553	-0.408839	-0.281843	0.060892	-0.354333	-0.437226	0.044980	-0.172288	-0.439952	0.044797	-0.349750	-0.388172	0.076149	-0.124022	-0.381299	0.076931	-0.390372	-0.369563	0.096338	-0.211185	-0.370937	0.094867	-0.302697	-0.389788	0.042583	-0.202013	-0.393547	0.042584	-0.314567	-0.320930	0.476366	-0.119026	-0.338263	0.470670	-0.228995	-0.344423	0.455352	-0.290138	-0.321293	0.479870	-0.394108	-0.341765	0.426848	-0.108353	-0.342679	0.416145	-0.409784	-0.297191	0.407115	-0.175384	-0.300531	0.399880	-0.344079	-0.318718	0.326128	-0.183180	-0.325276	0.207178	-0.344015	-0.311532	0.640387	-0.091433	-0.298721	0.632215	-0.421415	-0.216568	0.679415	-0.156733	-0.231976	0.619115	-0.166027	-0.227253	0.687520	-0.338497	-0.240194	0.619163	-0.332980	-0.404921	0.695329	-0.171066	-0.411809	0.619305	-0.168558	-0.407123	0.694832	-0.346904	-0.414866	0.622946	-0.349588	-0.388081	1.001986	-0.206268	-0.386276	1.002035	-0.298076	-0.225086	0.950293	-0.153978	-0.233114	0.956327	-0.362781	-0.385596	1.160804	-0.250761	-0.379707	1.410293	-0.239574	-0.228459	1.381103	-0.241265	-0.210509	1.338634	-0.238685	-0.322333	1.364303	-0.043426	-0.316439	1.384740	-0.432606	-0.349717	1.055845	-0.022671	-0.328116	1.058735	-0.479395	-0.296204	0.812397	0.045607	-0.289137	0.826010	-0.565608	-0.206772	1.553075	-0.163409	-0.203475	1.558117	-0.294370	-0.345349	1.483887	-0.236730	-0.286991	1.046394	-0.415058	-0.306447	1.043493	-0.091756	
4	0.0400	-0.238449	0.044772	-0.189040	-0.274568	0.028264	-0.107963	-0.286208	0.060603	-0.151981	-0.233345	0.042945	-0.321677	-0.269195	0.024551	-0.408832	-0.281840	0.060885	-0.354319	-0.437186	0.044956	-0.172292	-0.439935	0.044781	-0.349759	-0.387336	0.075782	-0.123215	-0.381669	0.077008	-0.390730	-0.369972	0.096497	-0.211318	-0.370968	0.094849	-0.302674	-0.389771	0.042577	-0.202020	-0.393548	0.042583	-0.314589	-0.320924	0.476352	-0.119009	-0.338249	0.470649	-0.228961	-0.344296	0.455300	-0.289989	-0.321303	0.479878	-0.394090	-0.341308	0.426918	-0.108267	-0.342964	0.416084	-0.409775	-0.300333	0.405939	-0.175158	-0.300525	0.399880	-0.344066	-0.318735	0.326116	-0.183170	-0.325295	0.207155	-0.344002	-0.311270	0.640365	-0.091170	-0.298013	0.632152	-0.421529	-0.216576	0.679374	-0.156725	-0.231994	0.619097	-0.165968	-0.227289	0.687423	-0.338486	-0.240208	0.619159	-0.332937	-0.404909	0.695399	-0.171027	-0.411808	0.619296	-0.168553	-0.407053	0.694875	-0.346829	-0.414847	0.622945	-0.349566	-0.388642	1.002106	-0.206479	-0.386049	1.002003	-0.297670	-0.225123	0.950301	-0.153940	-0.233150	0.956296	-0.362743	-0.385640	1.160822	-0.250720	-0.380121	1.410442	-0.239165	-0.228503	1.381066	-0.241227	-0.210557	1.338586	-0.238638	-0.322968	1.364443	-0.043545	-0.316505	1.384751	-0.432568	-0.350122	1.055913	-0.022862	-0.327779	1.058596	-0.479523	-0.296173	0.812368	0.045593	-0.289174	0.826004	-0.565555	-0.206710	1.553151	-0.162795	-0.203505	1.558102	-0.294362	-0.345358	1.483886	-0.236694	-0.287001	1.046411	-0.414992	-0.306439	1.043490	-0.091755	
